<svg xmlns="http://www.w3.org/2000/svg" version="1.1" xmlns:xlink="http://www.w3.org/1999/xlink" xmlns:svgjs="http://svgjs.com/svgjs" width="72mm" height="72mm"><svg xmlns:dc="http://purl.org/dc/elements/1.1/" xmlns:cc="http://creativecommons.org/ns#" xmlns:rdf="http://www.w3.org/1999/02/22-rdf-syntax-ns#" xmlns:svg="http://www.w3.org/2000/svg" xmlns="http://www.w3.org/2000/svg" xmlns:sodipodi="http://sodipodi.sourceforge.net/DTD/sodipodi-0.dtd" xmlns:inkscape="http://www.inkscape.org/namespaces/inkscape" width="72mm" height="72mm" viewBox="0 0 72 72" version="1.1" id="SvgjsSvg1014" inkscape:export-filename="/Users/raymond/Desktop/alpost/public/home/logo.png" inkscape:export-xdpi="106.27574" inkscape:export-ydpi="106.27574" inkscape:version="1.0.1 (c497b03c, 2020-09-10)" sodipodi:docname="icon.svg">
  <defs id="SvgjsDefs1013">
    <inkscape:path-effect effect="bend_path" id="SvgjsInkscape:path-effect1012" is_visible="true" lpeversion="1" bendpath="m 6.3479024,67.472578 c 11.6698476,-4.86027 22.5229986,-5.031402 34.3103886,0" prop_scale="1" scale_y_rel="false" vertical="false" hide_knot="false" bendpath-nodetypes="cc"></inkscape:path-effect>
    <inkscape:path-effect effect="bend_path" id="SvgjsInkscape:path-effect1011" is_visible="true" lpeversion="1" bendpath="m 6.3479024,53.217961 c 11.6698476,-4.86027 22.5229986,-5.031402 34.3103886,0" prop_scale="1" scale_y_rel="false" vertical="false" hide_knot="false" bendpath-nodetypes="cc"></inkscape:path-effect>
    <inkscape:path-effect effect="bend_path" id="SvgjsInkscape:path-effect1010" is_visible="true" lpeversion="1" bendpath="m 6.3577082,38.977004 c 11.6698468,-4.86027 22.5229978,-5.031402 34.3103878,0" prop_scale="1" scale_y_rel="false" vertical="false" hide_knot="false" bendpath-nodetypes="cc"></inkscape:path-effect>
    <inkscape:path-effect effect="bend_path" id="SvgjsInkscape:path-effect1009" is_visible="true" lpeversion="1" bendpath="m 1.1855659,37.17236 c 11.6698451,-4.86027 22.5229961,-5.031402 34.3103861,0" prop_scale="1" scale_y_rel="false" vertical="false" hide_knot="false" bendpath-nodetypes="cc"></inkscape:path-effect>
    <inkscape:path-effect effect="bend_path" id="SvgjsInkscape:path-effect1008" is_visible="true" lpeversion="1" bendpath="m 36.115709,24.960398 c 11.669845,-4.86027 22.522996,-5.031402 34.310386,0" prop_scale="1" scale_y_rel="false" vertical="false" hide_knot="false" bendpath-nodetypes="cc"></inkscape:path-effect>
    <inkscape:path-effect effect="bend_path" id="SvgjsInkscape:path-effect1007" is_visible="true" lpeversion="1" bendpath="m 6.3417282,24.960398 c 11.6698458,-4.86027 22.5229968,-5.031402 34.3103868,0" prop_scale="1" scale_y_rel="false" vertical="false" hide_knot="false" bendpath-nodetypes="cc"></inkscape:path-effect>
  </defs>
  <sodipodi:namedview id="SvgjsSodipodi:namedview1006" pagecolor="#ffffff" bordercolor="#666666" borderopacity="1.0" inkscape:pageopacity="0.0" inkscape:pageshadow="2" inkscape:zoom="1.9831184" inkscape:cx="125.2195" inkscape:cy="126.61559" inkscape:document-units="mm" inkscape:current-layer="layer1" inkscape:document-rotation="0" showgrid="false" inkscape:snap-bbox="true" inkscape:bbox-paths="true" inkscape:bbox-nodes="false" inkscape:snap-bbox-edge-midpoints="false" inkscape:object-paths="true" inkscape:snap-intersection-paths="true" inkscape:snap-nodes="true" showguides="true" inkscape:guide-bbox="true" inkscape:snap-global="false" fit-margin-top="0" fit-margin-left="0" fit-margin-right="0" fit-margin-bottom="0" inkscape:window-width="1440" inkscape:window-height="872" inkscape:window-x="0" inkscape:window-y="0" inkscape:window-maximized="0"></sodipodi:namedview>
  <metadata id="SvgjsMetadata1005">
    <rdf:rdf>
      <cc:work rdf:about="">
        <dc:format>image/svg+xml</dc:format>
        <dc:type rdf:resource="http://purl.org/dc/dcmitype/StillImage"></dc:type>
        <dc:title></dc:title>
      </cc:work>
    </rdf:rdf>
  </metadata>
  <g inkscape:label="Layer 1" inkscape:groupmode="layer" id="SvgjsG1004" transform="translate(-7.6558634,-27.988471)">
    <g id="SvgjsG1003" transform="translate(0.1498632,14.724296)">
      <path id="SvgjsPath1002" style="fill:#b91c1b;fill-opacity:0.99115;stroke-width:1.18995;stroke-linecap:round;stroke-linejoin:round;paint-order:markers stroke fill" d="m 43.492813,27.988471 v 7.15822 c 5.714386,1.837598 11.805868,2.960743 18.040085,2.999301 6.143764,0.0042 12.169839,-1.058857 17.823239,-2.869075 v -7.161321 c -5.712514,2.110861 -11.78306,3.402819 -17.794522,3.363618 -6.094056,4.24e-4 -12.244682,-1.359069 -18.068802,-3.490743 z m 0,14.01 v 7.158217 c 5.714386,1.837598 11.805868,2.960743 18.040085,2.999301 6.143764,0.0042 12.169839,-1.058857 17.823239,-2.869076 v -7.16132 c -5.712514,2.110859 -11.78306,3.402303 -17.794522,3.363102 -6.094056,4.24e-4 -12.244682,-1.358558 -18.068802,-3.490224 z m 0,14.245124 v 7.15822 c 5.714386,1.837595 11.805868,2.960224 18.040085,2.998782 6.143764,0.0042 12.169839,-1.058455 17.823239,-2.868559 v -7.161319 c -5.712514,2.110859 -11.78306,3.402301 -17.794522,3.363101 -6.094056,4.23e-4 -12.244682,-1.358554 -18.068802,-3.490225 z"></path>
      <path id="SvgjsPath1001" style="fill:#1f398a;fill-opacity:1;stroke-width:1.18995;stroke-linecap:round;stroke-linejoin:round;paint-order:markers stroke fill" d="m 25.575803,31.933967 c -6.190398,0.03829 -12.240343,1.146376 -17.9199396,2.961061 v 7.153568 C 13.44449,39.942079 19.551633,38.600843 25.603935,38.601261 c 6.032981,-0.03934 12.125675,1.26102 17.856059,3.385322 V 34.823196 C 37.78882,33.000987 31.74192,31.929726 25.575803,31.933967 Z m -0.01113,14.240991 c -6.186346,0.03826 -12.23244,1.144876 -17.9088046,2.957444 v 7.15305 C 13.441177,54.181274 19.54439,52.841834 25.5928,52.842252 31.62969,52.802887 37.726366,54.10496 43.459994,56.23171 V 49.067288 C 37.785654,47.24293 31.734757,46.170714 25.564668,46.174958 Z"></path>
      <path id="SvgjsPath1000" style="fill:#b91c1b;fill-opacity:1;stroke-width:1.18995;stroke-linecap:round;stroke-linejoin:round;paint-order:markers stroke fill" d="m 25.564668,60.429901 c -6.186346,0.03826 -12.23244,1.144474 -17.9088046,2.956928 v 7.15305 C 13.441177,68.435701 19.54439,67.096261 25.5928,67.096679 c 6.03689,-0.03936 12.133566,1.263224 17.867194,3.389974 V 63.321715 C 37.785654,61.497357 31.734757,60.425657 25.564668,60.429901 Z"></path>
    </g>
  </g>
</svg><style>@media (prefers-color-scheme: light) { :root { filter: none; } }
@media (prefers-color-scheme: dark) { :root { filter: contrast(0.625) brightness(2.5); } }
</style></svg>